<svg xmlns="http://www.w3.org/2000/svg" xmlns:xlink="http://www.w3.org/1999/xlink"><symbol id="arrow-right-icon" viewBox="0 0 9 14"><g fill="none">
<path d="M1.5 13L7.5 7L1.5 1" stroke="#2D383F" stroke-width="2"/>
</g></symbol><symbol id="close-icon" viewBox="0 0 22 22"><g fill="none">
<path d="M2 2L11 11M20 20L11 11M11 11L20 2L2 20" stroke="#2D383F" stroke-width="2"/>
</g></symbol><symbol id="level-icon" viewBox="0 0 22 22"><g fill="none">
<path d="M20 21H16.4V1H20V21Z" stroke="currentColor" stroke-miterlimit="16" stroke-linecap="round"/>
<path d="M12.8 21V6.45455H9.2L9.2 21H12.8Z" stroke="currentColor" stroke-miterlimit="16" stroke-linecap="round"/>
<path d="M5.6 21V11.9091H2V21H5.6Z" stroke="currentColor" stroke-miterlimit="16" stroke-linecap="round"/>
</g></symbol><symbol id="menu-icon" viewBox="0 0 22 22"><g fill="none">
<path d="M0 3H22V4.83609H0V3Z" fill="currentColor"/>
<path d="M0 17.1639H22V19H0V17.1639Z" fill="currentColor"/>
<path d="M0 10.082H14.08V11.918H0V10.082Z" fill="currentColor"/>
</g></symbol><symbol id="moon-icon" viewBox="0 0 22 22"><g fill="none">
<path d="M20.5272 12.382C20.3228 12.3307 20.1183 12.382 19.9394 12.5103C19.2748 13.0745 18.5081 13.5362 17.6646 13.844C16.8723 14.1518 16.0033 14.3057 15.0831 14.3057C13.0128 14.3057 11.1215 13.4593 9.76681 12.0999C8.41217 10.7405 7.56872 8.84251 7.56872 6.76497C7.56872 5.89291 7.72207 5.0465 7.97767 4.27704C8.25882 3.45628 8.66777 2.71247 9.20451 2.07125C9.43454 1.78912 9.38343 1.37874 9.10227 1.1479C8.92336 1.01966 8.71888 0.96836 8.51441 1.01966C6.34188 1.60958 4.4505 2.91766 3.09586 4.66177C1.79234 6.38024 1 8.50908 1 10.8431C1 13.6388 2.12461 16.178 3.96487 18.0247C5.80513 19.8715 8.3355 21 11.1215 21C13.4729 21 15.6454 20.1792 17.3835 18.8199C19.147 17.4348 20.425 15.4599 20.9618 13.2028C21.0895 12.8181 20.8851 12.459 20.5272 12.382ZM16.6167 17.7426C15.1342 18.9225 13.2429 19.6406 11.1726 19.6406C8.74444 19.6406 6.54635 18.6403 4.96168 17.0501C3.37701 15.4599 2.3802 13.2541 2.3802 10.8175C2.3802 8.79122 3.04474 6.94451 4.1949 5.45688C4.98724 4.43094 5.98405 3.58453 7.13421 2.99461C7.00642 3.27674 6.87862 3.55888 6.77638 3.86666C6.44411 4.79002 6.29076 5.76467 6.29076 6.79062C6.29076 9.22724 7.28757 11.4587 8.87224 13.0489C10.4569 14.6391 12.6806 15.6394 15.1087 15.6394C16.1822 15.6394 17.2045 15.4599 18.1502 15.1008C18.4825 14.9726 18.8148 14.8443 19.1215 14.6904C18.5081 15.8703 17.6646 16.9219 16.6167 17.7426Z" fill="currentColor"/>
</g></symbol><symbol id="play-button-icon" viewBox="0 0 12 22"><g fill="none">
<path d="M12 11L0 0V22L12 11Z" fill="white"/>
</g></symbol><symbol id="stars-3-icon" viewBox="0 0 84 16"><g fill="none">
<path d="M7.63441 11.6911L12.3525 14.3L11.1042 9.37971L15.2688 6.0708L9.77893 5.63889L7.63441 1L5.48992 5.63889L0 6.0708L4.16458 9.37971L2.91634 14.3L7.63441 11.6911Z" fill="white"/>
<path d="M24.6344 11.6911L29.3525 14.3L28.1042 9.37971L32.2688 6.0708L26.7789 5.63889L24.6344 1L22.4899 5.63889L17 6.0708L21.1646 9.37971L19.9163 14.3L24.6344 11.6911Z" fill="white"/>
<path d="M41.6344 11.6911L46.3525 14.3L45.1042 9.37971L49.2688 6.0708L43.7789 5.63889L41.6344 1L39.4899 5.63889L34 6.0708L38.1646 9.37971L36.9163 14.3L41.6344 11.6911Z" fill="white"/>
<path fill-rule="evenodd" clip-rule="evenodd" d="M58.6344 10.5484L61.8153 12.3073L60.976 8.99895L63.6574 6.86844L60.1169 6.58989L58.6344 3.38311L57.152 6.58989L53.6114 6.86844L56.2929 8.99895L55.4536 12.3073L58.6344 10.5484ZM53.9163 14.3L55.1646 9.37971L51 6.0708L56.4899 5.63889L58.6344 1L60.7789 5.63889L66.2688 6.0708L62.1042 9.37971L63.3525 14.3L58.6344 11.6911L53.9163 14.3Z" fill="white"/>
<path fill-rule="evenodd" clip-rule="evenodd" d="M75.6344 10.5484L78.8153 12.3073L77.976 8.99895L80.6574 6.86844L77.1169 6.58989L75.6344 3.38311L74.152 6.58989L70.6114 6.86844L73.2929 8.99895L72.4536 12.3073L75.6344 10.5484ZM70.9163 14.3L72.1646 9.37971L68 6.0708L73.4899 5.63889L75.6344 1L77.7789 5.63889L83.2688 6.0708L79.1042 9.37971L80.3525 14.3L75.6344 11.6911L70.9163 14.3Z" fill="white"/>
</g></symbol><symbol id="stars-4-icon" viewBox="0 0 84 16"><g fill="none">
<path d="M7.63441 11.6911L12.3525 14.3L11.1042 9.37971L15.2688 6.0708L9.77893 5.63889L7.63441 1L5.48992 5.63889L0 6.0708L4.16458 9.37971L2.91634 14.3L7.63441 11.6911Z" fill="white"/>
<path d="M24.6344 11.6911L29.3525 14.3L28.1042 9.37971L32.2688 6.0708L26.7789 5.63889L24.6344 1L22.4899 5.63889L17 6.0708L21.1646 9.37971L19.9163 14.3L24.6344 11.6911Z" fill="white"/>
<path d="M41.6344 11.6911L46.3525 14.3L45.1042 9.37971L49.2688 6.0708L43.7789 5.63889L41.6344 1L39.4899 5.63889L34 6.0708L38.1646 9.37971L36.9163 14.3L41.6344 11.6911Z" fill="white"/>
<path d="M58.6344 11.6911L63.3525 14.3L62.1042 9.37971L66.2688 6.0708L60.7789 5.63889L58.6344 1L56.4899 5.63889L51 6.0708L55.1646 9.37971L53.9163 14.3L58.6344 11.6911Z" fill="white"/>
<path fill-rule="evenodd" clip-rule="evenodd" d="M75.6344 10.5484L78.8153 12.3073L77.976 8.99895L80.6574 6.86844L77.1169 6.58989L75.6344 3.38311L74.152 6.58989L70.6114 6.86844L73.2929 8.99895L72.4536 12.3073L75.6344 10.5484ZM70.9163 14.3L72.1646 9.37971L68 6.0708L73.4899 5.63889L75.6344 1L77.7789 5.63889L83.2688 6.0708L79.1042 9.37971L80.3525 14.3L75.6344 11.6911L70.9163 14.3Z" fill="white"/>
</g></symbol><symbol id="sun-icon" viewBox="0 0 22 22"><g fill="none">
<path d="M14.545 7.45505C13.6455 6.55558 12.3757 5.97357 11 5.97357C9.62433 5.97357 8.35449 6.52912 7.45502 7.45505C6.55555 8.35451 5.97354 9.62435 5.97354 11C5.97354 12.3757 6.55555 13.6455 7.45502 14.545C8.35449 15.4444 9.62433 16.0265 11 16.0265C12.3757 16.0265 13.6455 15.4709 14.545 14.545C15.4444 13.6455 16.0265 12.3757 16.0265 11C16.0265 9.62435 15.4709 8.35451 14.545 7.45505ZM13.5926 13.5926C12.9312 14.254 12.0053 14.6508 11 14.6508C9.9947 14.6508 9.06878 14.254 8.4074 13.5926C7.74603 12.9312 7.3492 12.0053 7.3492 11C7.3492 9.99472 7.74603 9.0688 8.4074 8.40742C9.06878 7.74605 9.9947 7.34923 11 7.34923C12.0053 7.34923 12.9312 7.74605 13.5926 8.40742C14.254 9.0688 14.6508 9.99472 14.6508 11C14.6508 12.0053 14.254 12.9312 13.5926 13.5926Z" fill="currentColor"/>
<path d="M20.3122 10.3122H18.2751C17.9048 10.3122 17.5873 10.6297 17.5873 11C17.5873 11.3704 17.9048 11.6879 18.2751 11.6879H20.3122C20.6825 11.6879 21 11.3704 21 11C21 10.6297 20.6825 10.3122 20.3122 10.3122Z" fill="currentColor"/>
<path d="M11 17.5873C10.6296 17.5873 10.3122 17.9048 10.3122 18.2751V20.3122C10.3122 20.6825 10.6296 21 11 21C11.3704 21 11.6878 20.6825 11.6878 20.3122V18.2751C11.6878 17.9048 11.3704 17.5873 11 17.5873Z" fill="currentColor"/>
<path d="M18.0635 17.1111L16.6085 15.656C16.3704 15.3915 15.9207 15.3915 15.6561 15.656C15.3916 15.9206 15.3916 16.3439 15.6561 16.6084L17.1111 18.0634C17.3757 18.328 17.799 18.328 18.0635 18.0634C18.3281 17.7989 18.3281 17.3756 18.0635 17.1111Z" fill="currentColor"/>
<path d="M11 1C10.6296 1 10.3122 1.31746 10.3122 1.68783V3.72486C10.3122 4.09523 10.6296 4.41269 11 4.41269C11.3704 4.41269 11.6878 4.09523 11.6878 3.72486V1.68783C11.6878 1.31746 11.3704 1 11 1Z" fill="currentColor"/>
<path d="M18.0899 3.93653C17.8254 3.67198 17.4021 3.67198 17.1376 3.93653L15.6825 5.39155C15.418 5.6561 15.418 6.07938 15.6825 6.34393C15.9206 6.60848 16.3704 6.60848 16.6349 6.34393L18.0899 4.88891C18.3545 4.62436 18.3545 4.20108 18.0899 3.93653Z" fill="currentColor"/>
<path d="M3.72487 10.3122H1.68783C1.31746 10.3122 1 10.6297 1 11C1 11.3704 1.29101 11.6879 1.68783 11.6879H3.72487C4.09524 11.6879 4.4127 11.3704 4.4127 11C4.4127 10.6297 4.09524 10.3122 3.72487 10.3122Z" fill="currentColor"/>
<path d="M6.31746 15.656C6.07937 15.3915 5.62963 15.3915 5.36508 15.656L3.91005 17.1111C3.6455 17.3756 3.6455 17.7989 3.91005 18.0634C4.1746 18.328 4.59788 18.328 4.86243 18.0634L6.31746 16.6084C6.58201 16.3439 6.58201 15.9206 6.31746 15.656Z" fill="currentColor"/>
<path d="M6.31746 5.39155L4.86243 3.93653C4.59788 3.67198 4.1746 3.67198 3.91005 3.93653C3.6455 4.20108 3.6455 4.62436 3.91005 4.88891L5.36508 6.34393C5.62963 6.60848 6.05291 6.60848 6.31746 6.34393C6.58201 6.07938 6.58201 5.6561 6.31746 5.39155Z" fill="currentColor"/>
</g></symbol><symbol id="tours-geolocation-icon" viewBox="0 0 22 22"><g fill="none">
<path fill-rule="evenodd" clip-rule="evenodd" d="M11 1C15.1421 1 18.5 4.19996 18.5 8.14732V8.57782C18.5 10.1572 17.9822 11.6971 17.0189 12.9823L11.0148 20.9927C11.0076 21.0024 10.9924 21.0024 10.9852 20.9927L4.98114 12.9823C4.01784 11.6971 3.5 10.1572 3.5 8.57782V8.14732C3.5 4.19996 6.85786 1 11 1ZM9.66733 5.76428C8.82517 6.14804 8.21352 6.87379 8.00552 7.73609C7.79753 8.59839 8.01582 9.50338 8.59862 10.1949C9.18141 10.8864 10.0653 11.2892 11 11.2892C11.9347 11.2892 12.8186 10.8864 13.4014 10.1949C13.9842 9.50338 14.2025 8.59839 13.9945 7.73609C13.7865 6.87379 13.1748 6.14804 12.3327 5.76428C11.4905 5.38052 10.5095 5.38052 9.66733 5.76428Z" fill="#ffffff"/>
</g></symbol></svg>